%FSLAX34Y34*%
%MOMM*%
%LNCOPPER_BOTTOM*%
G71*
G01*
%ADD10C, 2.00*%
%ADD11C, 4.00*%
%ADD12C, 0.44*%
%ADD13C, 1.30*%
%ADD14C, 1.70*%
%ADD15C, 2.00*%
%ADD16C, 0.60*%
%ADD17C, 0.22*%
%ADD18C, 1.90*%
%LPD*%
X825500Y774700D02*
G54D10*
D03*
X825500Y749300D02*
G54D10*
D03*
X825500Y723900D02*
G54D10*
D03*
X825500Y698500D02*
G54D10*
D03*
X825500Y673100D02*
G54D10*
D03*
X825500Y647700D02*
G54D10*
D03*
X825500Y622300D02*
G54D10*
D03*
X825500Y596900D02*
G54D10*
D03*
X825500Y571500D02*
G54D10*
D03*
X825500Y546100D02*
G54D10*
D03*
X825500Y520700D02*
G54D10*
D03*
X825500Y495300D02*
G54D10*
D03*
X825500Y469900D02*
G54D10*
D03*
X825500Y444500D02*
G54D10*
D03*
X825500Y419100D02*
G54D10*
D03*
X571500Y774700D02*
G54D10*
D03*
X571500Y749300D02*
G54D10*
D03*
X571500Y723900D02*
G54D10*
D03*
X571500Y698500D02*
G54D10*
D03*
X571500Y673100D02*
G54D10*
D03*
X571500Y647700D02*
G54D10*
D03*
X571500Y622300D02*
G54D10*
D03*
X571500Y596900D02*
G54D10*
D03*
X571500Y571500D02*
G54D10*
D03*
X571500Y546100D02*
G54D10*
D03*
X571500Y520700D02*
G54D10*
D03*
X571500Y495300D02*
G54D10*
D03*
X571500Y469900D02*
G54D10*
D03*
X571500Y444500D02*
G54D10*
D03*
X571500Y419100D02*
G54D10*
D03*
X1130300Y838200D02*
G54D11*
D03*
X1181100Y838200D02*
G54D11*
D03*
G54D12*
X1117600Y866456D02*
X1096267Y866456D01*
G54D12*
X1106933Y875344D02*
X1106933Y857567D01*
G54D12*
X1219200Y866456D02*
X1197867Y866456D01*
G54D12*
X1295400Y848356D02*
X1282067Y812800D01*
X1268733Y848356D01*
G54D12*
X1258955Y835022D02*
X1245622Y848356D01*
X1245622Y812800D01*
G54D12*
X1214511Y812800D02*
X1235844Y812800D01*
X1235844Y815022D01*
X1233177Y819467D01*
X1217177Y832800D01*
X1214511Y837244D01*
X1214511Y841689D01*
X1217177Y846133D01*
X1222511Y848356D01*
X1227844Y848356D01*
X1233177Y846133D01*
X1235844Y841689D01*
X1130300Y762000D02*
G54D11*
D03*
X1181100Y762000D02*
G54D11*
D03*
G54D12*
X1117600Y790256D02*
X1096267Y790256D01*
G54D12*
X1106933Y799144D02*
X1106933Y781367D01*
G54D12*
X1219200Y790256D02*
X1197867Y790256D01*
G54D12*
X1371600Y772156D02*
X1358267Y736600D01*
X1344933Y772156D01*
G54D12*
X1335155Y758822D02*
X1321822Y772156D01*
X1321822Y736600D01*
G54D12*
X1290711Y736600D02*
X1312044Y736600D01*
X1312044Y738822D01*
X1309377Y743267D01*
X1293377Y756600D01*
X1290711Y761044D01*
X1290711Y765489D01*
X1293377Y769933D01*
X1298711Y772156D01*
X1304044Y772156D01*
X1309377Y769933D01*
X1312044Y765489D01*
G54D12*
X1264933Y741933D02*
X1264933Y750822D01*
X1267600Y755267D01*
X1272933Y756600D01*
X1278266Y755267D01*
X1280933Y750822D01*
X1280933Y741933D01*
X1278266Y737489D01*
X1272933Y736600D01*
X1267600Y737489D01*
X1264933Y741933D01*
G54D12*
X1239155Y756600D02*
X1239155Y736600D01*
G54D12*
X1239155Y741044D02*
X1241822Y737489D01*
X1247155Y736600D01*
X1252488Y737489D01*
X1255155Y741044D01*
X1255155Y756600D01*
G54D12*
X1224044Y772156D02*
X1224044Y738822D01*
X1221377Y736600D01*
X1218710Y737489D01*
G54D12*
X1229377Y756600D02*
X1218710Y756600D01*
G54D13*
X1130300Y838200D02*
X1130300Y762000D01*
G54D13*
X1181100Y838200D02*
X1181100Y762000D01*
G54D13*
X1181100Y723900D02*
X1181100Y762000D01*
X1048165Y647700D02*
G54D14*
D03*
X1035465Y633700D02*
G54D14*
D03*
X1048165Y619700D02*
G54D14*
D03*
X1092200Y647700D02*
G54D15*
D03*
X1168400Y647700D02*
G54D15*
D03*
X914400Y635000D02*
G54D15*
D03*
X990600Y635000D02*
G54D15*
D03*
G54D16*
X1041400Y633700D02*
X991900Y633700D01*
X990600Y635000D01*
G54D16*
X1048165Y619700D02*
X1130300Y619068D01*
X1130300Y723900D01*
G54D16*
X914400Y635000D02*
X889000Y685800D01*
X825500Y698500D01*
G54D16*
X1048165Y647700D02*
X1092200Y647700D01*
G54D17*
X1188467Y618489D02*
X1184467Y616267D01*
X1183133Y614044D01*
X1183133Y609600D01*
G54D17*
X1193800Y609600D02*
X1193800Y627378D01*
X1187133Y627378D01*
X1184467Y626267D01*
X1183133Y624044D01*
X1183133Y621822D01*
X1184467Y619600D01*
X1187133Y618489D01*
X1193800Y618489D01*
G54D17*
X1178244Y620711D02*
X1171577Y627378D01*
X1171577Y609600D01*
G54D17*
X1156021Y624044D02*
X1156021Y612933D01*
X1157355Y610711D01*
X1160021Y609600D01*
X1162688Y609600D01*
X1165355Y610711D01*
X1166688Y612933D01*
X1166688Y624044D01*
X1165355Y626267D01*
X1162688Y627378D01*
X1160021Y627378D01*
X1157355Y626267D01*
X1156021Y624044D01*
G54D17*
X1140465Y624044D02*
X1140465Y612933D01*
X1141799Y610711D01*
X1144465Y609600D01*
X1147132Y609600D01*
X1149799Y610711D01*
X1151132Y612933D01*
X1151132Y624044D01*
X1149799Y626267D01*
X1147132Y627378D01*
X1144465Y627378D01*
X1141799Y626267D01*
X1140465Y624044D01*
G54D17*
X1010667Y605789D02*
X1006667Y603567D01*
X1005333Y601344D01*
X1005333Y596900D01*
G54D17*
X1016000Y596900D02*
X1016000Y614678D01*
X1009333Y614678D01*
X1006667Y613567D01*
X1005333Y611344D01*
X1005333Y609122D01*
X1006667Y606900D01*
X1009333Y605789D01*
X1016000Y605789D01*
G54D17*
X1000444Y611344D02*
X999111Y613567D01*
X996444Y614678D01*
X993777Y614678D01*
X991111Y613567D01*
X989777Y611344D01*
X989777Y609122D01*
X991111Y606900D01*
X993777Y605789D01*
X991111Y604678D01*
X989777Y602456D01*
X989777Y600233D01*
X991111Y598011D01*
X993777Y596900D01*
X996444Y596900D01*
X999111Y598011D01*
X1000444Y600233D01*
G54D17*
X974221Y611344D02*
X974221Y600233D01*
X975555Y598011D01*
X978221Y596900D01*
X980888Y596900D01*
X983555Y598011D01*
X984888Y600233D01*
X984888Y611344D01*
X983555Y613567D01*
X980888Y614678D01*
X978221Y614678D01*
X975555Y613567D01*
X974221Y611344D01*
G54D17*
X958665Y611344D02*
X958665Y600233D01*
X959999Y598011D01*
X962665Y596900D01*
X965332Y596900D01*
X967999Y598011D01*
X969332Y600233D01*
X969332Y611344D01*
X967999Y613567D01*
X965332Y614678D01*
X962665Y614678D01*
X959999Y613567D01*
X958665Y611344D01*
X1079500Y762000D02*
G54D15*
D03*
X1079500Y685800D02*
G54D15*
D03*
G54D16*
X1079500Y685800D02*
X1079500Y647700D01*
G54D17*
X1061467Y681989D02*
X1057467Y679767D01*
X1056133Y677544D01*
X1056133Y673100D01*
G54D17*
X1066800Y673100D02*
X1066800Y690878D01*
X1060133Y690878D01*
X1057467Y689767D01*
X1056133Y687544D01*
X1056133Y685322D01*
X1057467Y683100D01*
X1060133Y681989D01*
X1066800Y681989D01*
G54D17*
X1051244Y684211D02*
X1044577Y690878D01*
X1044577Y673100D01*
G54D17*
X1039688Y673100D02*
X1039688Y690878D01*
G54D17*
X1039688Y678656D02*
X1029021Y690878D01*
G54D17*
X1035688Y681989D02*
X1029021Y673100D01*
X1244600Y647700D02*
G54D18*
D03*
X1270000Y647700D02*
G54D18*
D03*
X1295400Y647700D02*
G54D18*
D03*
G54D16*
X1168400Y647700D02*
X1244600Y647700D01*
G54D13*
X1295400Y647700D02*
X1295400Y698500D01*
X1282700Y711200D01*
X1193800Y711200D01*
X1181100Y723900D01*
X1270000Y596900D02*
G54D11*
D03*
G54D13*
X1270000Y596900D02*
X1270000Y647700D01*
G54D13*
X1130300Y838200D02*
X1130300Y863600D01*
X1168400Y901700D01*
X1308100Y901700D01*
X1384300Y825500D01*
X1384300Y622300D01*
X1358900Y596900D01*
X1333500Y596900D01*
X1320800Y596900D02*
G54D11*
D03*
G54D12*
X1358900Y533400D02*
X1358900Y568956D01*
G54D12*
X1337567Y533400D02*
X1337567Y568956D01*
G54D12*
X1358900Y551178D02*
X1337567Y551178D01*
G54D12*
X1311789Y535622D02*
X1316056Y533400D01*
X1321389Y533400D01*
X1326722Y535622D01*
X1327789Y540067D01*
X1327789Y547622D01*
X1325122Y552067D01*
X1319789Y553400D01*
X1314456Y552067D01*
X1311789Y548956D01*
X1311789Y544511D01*
X1327789Y544511D01*
G54D12*
X1302011Y551178D02*
X1296678Y553400D01*
X1290278Y553400D01*
X1286011Y548956D01*
X1286011Y533400D01*
G54D12*
X1286011Y540067D02*
X1288678Y544511D01*
X1294011Y545400D01*
X1299344Y544511D01*
X1302011Y540067D01*
X1300944Y535622D01*
X1296678Y533400D01*
X1294011Y533400D01*
X1292944Y533400D01*
X1288678Y535622D01*
X1286011Y540067D01*
G54D12*
X1270900Y568956D02*
X1270900Y535622D01*
X1268233Y533400D01*
X1265566Y534289D01*
G54D12*
X1276233Y553400D02*
X1265566Y553400D01*
G54D12*
X1239788Y535622D02*
X1244055Y533400D01*
X1249388Y533400D01*
X1254721Y535622D01*
X1255788Y540067D01*
X1255788Y547622D01*
X1253121Y552067D01*
X1247788Y553400D01*
X1242455Y552067D01*
X1239788Y548956D01*
X1239788Y544511D01*
X1255788Y544511D01*
G54D12*
X1230010Y533400D02*
X1230010Y553400D01*
G54D12*
X1230010Y548956D02*
X1224677Y553400D01*
X1219343Y553400D01*
G54D16*
X1130300Y762000D02*
X1079500Y762000D01*
X952500Y762000D01*
X939800Y774700D01*
X825500Y774700D01*
G54D16*
X825500Y749300D02*
X927100Y723900D01*
X1181100Y723900D01*
G54D16*
X571500Y774700D02*
X457200Y774700D01*
G54D16*
X571500Y749300D02*
X457200Y749300D01*
G54D16*
X571500Y698500D02*
X457200Y673100D01*
G54D16*
X571500Y673100D02*
X457200Y647700D01*
X457200Y774700D02*
G54D10*
D03*
X457200Y749300D02*
G54D10*
D03*
X457200Y673100D02*
G54D10*
D03*
X457200Y647700D02*
G54D10*
D03*
X351705Y520700D02*
G54D14*
D03*
X364405Y506700D02*
G54D14*
D03*
X351705Y492700D02*
G54D14*
D03*
X307670Y520700D02*
G54D15*
D03*
X231470Y520700D02*
G54D15*
D03*
X485470Y508000D02*
G54D15*
D03*
X409270Y508000D02*
G54D15*
D03*
G54D16*
X358470Y506700D02*
X407970Y506700D01*
X409270Y508000D01*
G54D16*
X351705Y492700D02*
X269570Y492068D01*
X266700Y774700D01*
X457200Y774700D01*
G54D16*
X485470Y508000D02*
X510870Y558800D01*
X574370Y571500D01*
G54D16*
X351705Y520700D02*
X307670Y520700D01*
G54D17*
X254072Y491489D02*
X250072Y489267D01*
X248738Y487044D01*
X248738Y482600D01*
G54D17*
X259405Y482600D02*
X259405Y500378D01*
X252738Y500378D01*
X250072Y499267D01*
X248738Y497044D01*
X248738Y494822D01*
X250072Y492600D01*
X252738Y491489D01*
X259405Y491489D01*
G54D17*
X243849Y493711D02*
X237182Y500378D01*
X237182Y482600D01*
G54D17*
X221626Y497044D02*
X221626Y485933D01*
X222960Y483711D01*
X225626Y482600D01*
X228293Y482600D01*
X230960Y483711D01*
X232293Y485933D01*
X232293Y497044D01*
X230960Y499267D01*
X228293Y500378D01*
X225626Y500378D01*
X222960Y499267D01*
X221626Y497044D01*
G54D17*
X206070Y497044D02*
X206070Y485933D01*
X207404Y483711D01*
X210070Y482600D01*
X212737Y482600D01*
X215404Y483711D01*
X216737Y485933D01*
X216737Y497044D01*
X215404Y499267D01*
X212737Y500378D01*
X210070Y500378D01*
X207404Y499267D01*
X206070Y497044D01*
G54D17*
X435872Y478789D02*
X431872Y476567D01*
X430538Y474344D01*
X430538Y469900D01*
G54D17*
X441205Y469900D02*
X441205Y487678D01*
X434538Y487678D01*
X431872Y486567D01*
X430538Y484344D01*
X430538Y482122D01*
X431872Y479900D01*
X434538Y478789D01*
X441205Y478789D01*
G54D17*
X425649Y484344D02*
X424316Y486567D01*
X421649Y487678D01*
X418982Y487678D01*
X416316Y486567D01*
X414982Y484344D01*
X414982Y482122D01*
X416316Y479900D01*
X418982Y478789D01*
X416316Y477678D01*
X414982Y475456D01*
X414982Y473233D01*
X416316Y471011D01*
X418982Y469900D01*
X421649Y469900D01*
X424316Y471011D01*
X425649Y473233D01*
G54D17*
X399426Y484344D02*
X399426Y473233D01*
X400760Y471011D01*
X403426Y469900D01*
X406093Y469900D01*
X408760Y471011D01*
X410093Y473233D01*
X410093Y484344D01*
X408760Y486567D01*
X406093Y487678D01*
X403426Y487678D01*
X400760Y486567D01*
X399426Y484344D01*
G54D17*
X383870Y484344D02*
X383870Y473233D01*
X385204Y471011D01*
X387870Y469900D01*
X390537Y469900D01*
X393204Y471011D01*
X394537Y473233D01*
X394537Y484344D01*
X393204Y486567D01*
X390537Y487678D01*
X387870Y487678D01*
X385204Y486567D01*
X383870Y484344D01*
X396570Y571500D02*
G54D15*
D03*
X320370Y571500D02*
G54D15*
D03*
G54D16*
X320370Y571500D02*
X320370Y520700D01*
G54D17*
X383870Y584200D02*
X379870Y581978D01*
X378537Y579756D01*
X378537Y575311D01*
G54D17*
X389203Y575311D02*
X389203Y593089D01*
X382537Y593089D01*
X379870Y591978D01*
X378537Y589756D01*
X378537Y587533D01*
X379870Y585311D01*
X382537Y584200D01*
X389203Y584200D01*
G54D17*
X373647Y586422D02*
X366981Y593089D01*
X366981Y575311D01*
G54D17*
X362091Y575311D02*
X362091Y593089D01*
G54D17*
X362091Y580867D02*
X351425Y593089D01*
G54D17*
X358091Y584200D02*
X351425Y575311D01*
X155270Y520700D02*
G54D18*
D03*
X129870Y520700D02*
G54D18*
D03*
X104470Y520700D02*
G54D18*
D03*
G54D16*
X231470Y520700D02*
X155270Y520700D01*
X457200Y622300D02*
G54D10*
D03*
X457200Y596900D02*
G54D10*
D03*
G54D16*
X571500Y647700D02*
X457200Y622300D01*
G54D16*
X571500Y622300D02*
X457200Y596900D01*
G54D16*
X104470Y520700D02*
X104470Y612470D01*
X266700Y774700D01*
G54D16*
X129870Y520700D02*
X129870Y574370D01*
X241300Y685800D01*
X457200Y723900D02*
G54D10*
D03*
X292100Y685800D02*
G54D10*
D03*
X241300Y685800D02*
G54D10*
D03*
X457200Y698500D02*
G54D10*
D03*
G54D16*
X292100Y685800D02*
X330200Y723900D01*
X457200Y723900D01*
G54D16*
X457200Y698500D02*
X431800Y698500D01*
X431800Y571500D01*
X457200Y546100D01*
X457200Y431800D01*
G54D16*
X396570Y571500D02*
X431800Y571500D01*
X398800Y431800D02*
G54D18*
D03*
X398800Y406400D02*
G54D18*
D03*
X398800Y381000D02*
G54D18*
D03*
G54D16*
X329400Y431800D02*
X457200Y431800D01*
G54D16*
X393700Y406400D02*
X139700Y406400D01*
X139700Y431800D01*
G54D16*
X279400Y406400D02*
X215900Y355600D01*
G54D16*
X265900Y355600D02*
X393700Y381000D01*
G54D16*
X393700Y406400D02*
X508000Y406400D01*
X533400Y381000D01*
X609600Y381000D01*
X622300Y393700D01*
X622300Y723900D01*
X571500Y774700D01*
G54D16*
X825500Y749300D02*
X685800Y749300D01*
X660400Y723900D01*
X660400Y381000D01*
X622300Y342900D01*
X431800Y342900D01*
X393700Y381000D01*
X265900Y355600D02*
G54D15*
D03*
X215900Y355600D02*
G54D15*
D03*
X189700Y431800D02*
G54D15*
D03*
X139700Y431800D02*
G54D15*
D03*
G54D16*
X189700Y431800D02*
X342900Y431800D01*
G54D17*
X256033Y331944D02*
X256033Y320833D01*
X257367Y318611D01*
X260033Y317500D01*
X262700Y317500D01*
X265367Y318611D01*
X266700Y320833D01*
X266700Y331944D01*
X265367Y334167D01*
X262700Y335278D01*
X260033Y335278D01*
X257367Y334167D01*
X256033Y331944D01*
G54D17*
X250077Y317500D02*
X251144Y317500D01*
X251144Y318389D01*
X250077Y318389D01*
X250077Y317500D01*
X251144Y317500D01*
G54D17*
X245188Y328611D02*
X238521Y335278D01*
X238521Y317500D01*
G54D17*
X225632Y327500D02*
X225632Y317500D01*
G54D17*
X225632Y319722D02*
X226965Y317944D01*
X229632Y317500D01*
X232299Y317944D01*
X233632Y319722D01*
X233632Y327500D01*
G54D17*
X116333Y419100D02*
X127000Y419100D01*
X127000Y420211D01*
X125667Y422433D01*
X117667Y429100D01*
X116333Y431322D01*
X116333Y433544D01*
X117667Y435767D01*
X120333Y436878D01*
X123000Y436878D01*
X125667Y435767D01*
X127000Y433544D01*
G54D17*
X100777Y419100D02*
X111444Y419100D01*
X111444Y420211D01*
X110111Y422433D01*
X102111Y429100D01*
X100777Y431322D01*
X100777Y433544D01*
X102111Y435767D01*
X104777Y436878D01*
X107444Y436878D01*
X110111Y435767D01*
X111444Y433544D01*
G54D17*
X87888Y429100D02*
X87888Y419100D01*
G54D17*
X87888Y421322D02*
X89221Y419544D01*
X91888Y419100D01*
X94555Y419544D01*
X95888Y421322D01*
X95888Y429100D01*
X927100Y571500D02*
G54D10*
D03*
X927100Y546100D02*
G54D10*
D03*
X927100Y520700D02*
G54D10*
D03*
X927100Y495300D02*
G54D10*
D03*
X927100Y469900D02*
G54D10*
D03*
X927100Y444500D02*
G54D10*
D03*
X927100Y419100D02*
G54D10*
D03*
X927100Y393700D02*
G54D10*
D03*
X927100Y368300D02*
G54D10*
D03*
G54D16*
X825500Y673100D02*
X927100Y571500D01*
G54D16*
X825500Y647700D02*
X927100Y546100D01*
G54D16*
X825500Y622300D02*
X927100Y520700D01*
G54D16*
X825500Y596900D02*
X927100Y495300D01*
G54D16*
X825500Y571500D02*
X927100Y469900D01*
G54D16*
X825500Y546100D02*
X927100Y444500D01*
G54D16*
X825500Y520700D02*
X927100Y419100D01*
G54D16*
X825500Y495300D02*
X927100Y393700D01*
G54D16*
X825500Y469900D02*
X927100Y368300D01*
X927100Y342900D02*
G54D10*
D03*
G54D16*
X825500Y444500D02*
X927100Y342900D01*
M02*
